<svg id="mermaid-svg" width="680.46875" xmlns="http://www.w3.org/2000/svg" height="457.9938049316406" viewBox="-122.46875 -34.70000076293945 680.46875 457.9938049316406" role="graphics-document document" aria-roledescription="gitGraph" xmlns:xlink="http://www.w3.org/1999/xlink"><style>#mermaid-svg{font-family:"trebuchet ms",verdana,arial,sans-serif;font-size:16px;fill:#333;}#mermaid-svg .error-icon{fill:#552222;}#mermaid-svg .error-text{fill:#552222;stroke:#552222;}#mermaid-svg .edge-thickness-normal{stroke-width:2px;}#mermaid-svg .edge-thickness-thick{stroke-width:3.5px;}#mermaid-svg .edge-pattern-solid{stroke-dasharray:0;}#mermaid-svg .edge-pattern-dashed{stroke-dasharray:3;}#mermaid-svg .edge-pattern-dotted{stroke-dasharray:2;}#mermaid-svg .marker{fill:#333333;stroke:#333333;}#mermaid-svg .marker.cross{stroke:#333333;}#mermaid-svg svg{font-family:"trebuchet ms",verdana,arial,sans-serif;font-size:16px;}#mermaid-svg .commit-id,#mermaid-svg .commit-msg,#mermaid-svg .branch-label{fill:lightgrey;color:lightgrey;font-family:'trebuchet ms',verdana,arial,sans-serif;font-family:var(--mermaid-font-family);}#mermaid-svg .branch-label0{fill:#ffffff;}#mermaid-svg .commit0{stroke:hsl(240, 100%, 46.2745098039%);fill:hsl(240, 100%, 46.2745098039%);}#mermaid-svg .commit-highlight0{stroke:#f44174;fill:#f44174;}#mermaid-svg .label0{fill:hsl(240, 100%, 46.2745098039%);}#mermaid-svg .arrow0{stroke:hsl(240, 100%, 46.2745098039%);}#mermaid-svg .branch-label1{fill:#fff;}#mermaid-svg .commit1{stroke:#f44174;fill:#f44174;}#mermaid-svg .commit-highlight1{stroke:rgb(0, 0, 160.5);fill:rgb(0, 0, 160.5);}#mermaid-svg .label1{fill:#f44174;}#mermaid-svg .arrow1{stroke:#f44174;}#mermaid-svg .branch-label2{fill:black;}#mermaid-svg .commit2{stroke:hsl(80, 100%, 46.2745098039%);fill:hsl(80, 100%, 46.2745098039%);}#mermaid-svg .commit-highlight2{stroke:rgb(48.8333333334, 0, 146.5000000001);fill:rgb(48.8333333334, 0, 146.5000000001);}#mermaid-svg .label2{fill:hsl(80, 100%, 46.2745098039%);}#mermaid-svg .arrow2{stroke:hsl(80, 100%, 46.2745098039%);}#mermaid-svg .branch-label3{fill:#ffffff;}#mermaid-svg .commit3{stroke:hsl(210, 100%, 46.2745098039%);fill:hsl(210, 100%, 46.2745098039%);}#mermaid-svg .commit-highlight3{stroke:rgb(146.5000000001, 73.2500000001, 0);fill:rgb(146.5000000001, 73.2500000001, 0);}#mermaid-svg .label3{fill:hsl(210, 100%, 46.2745098039%);}#mermaid-svg .arrow3{stroke:hsl(210, 100%, 46.2745098039%);}#mermaid-svg .branch-label4{fill:black;}#mermaid-svg .commit4{stroke:hsl(180, 100%, 46.2745098039%);fill:hsl(180, 100%, 46.2745098039%);}#mermaid-svg .commit-highlight4{stroke:rgb(146.5000000001, 0, 0);fill:rgb(146.5000000001, 0, 0);}#mermaid-svg .label4{fill:hsl(180, 100%, 46.2745098039%);}#mermaid-svg .arrow4{stroke:hsl(180, 100%, 46.2745098039%);}#mermaid-svg .branch-label5{fill:black;}#mermaid-svg .commit5{stroke:hsl(150, 100%, 46.2745098039%);fill:hsl(150, 100%, 46.2745098039%);}#mermaid-svg .commit-highlight5{stroke:rgb(146.5000000001, 0, 73.2500000001);fill:rgb(146.5000000001, 0, 73.2500000001);}#mermaid-svg .label5{fill:hsl(150, 100%, 46.2745098039%);}#mermaid-svg .arrow5{stroke:hsl(150, 100%, 46.2745098039%);}#mermaid-svg .branch-label6{fill:black;}#mermaid-svg .commit6{stroke:hsl(300, 100%, 46.2745098039%);fill:hsl(300, 100%, 46.2745098039%);}#mermaid-svg .commit-highlight6{stroke:rgb(0, 146.5000000001, 0);fill:rgb(0, 146.5000000001, 0);}#mermaid-svg .label6{fill:hsl(300, 100%, 46.2745098039%);}#mermaid-svg .arrow6{stroke:hsl(300, 100%, 46.2745098039%);}#mermaid-svg .branch-label7{fill:black;}#mermaid-svg .commit7{stroke:hsl(0, 100%, 46.2745098039%);fill:hsl(0, 100%, 46.2745098039%);}#mermaid-svg .commit-highlight7{stroke:rgb(0, 146.5000000001, 146.5000000001);fill:rgb(0, 146.5000000001, 146.5000000001);}#mermaid-svg .label7{fill:hsl(0, 100%, 46.2745098039%);}#mermaid-svg .arrow7{stroke:hsl(0, 100%, 46.2745098039%);}#mermaid-svg .branch{stroke-width:1;stroke:#333333;stroke-dasharray:2;}#mermaid-svg .commit-label{font-size:10px;fill:#000021;}#mermaid-svg .commit-label-bkg{font-size:10px;fill:#ffffde;opacity:0.5;}#mermaid-svg .tag-label{font-size:10px;fill:#131300;}#mermaid-svg .tag-label-bkg{fill:#ECECFF;stroke:hsl(240, 60%, 86.2745098039%);}#mermaid-svg .tag-hole{fill:#333;}#mermaid-svg .commit-merge{stroke:#ECECFF;fill:#ECECFF;}#mermaid-svg .commit-reverse{stroke:#ECECFF;fill:#ECECFF;stroke-width:3;}#mermaid-svg .commit-highlight-inner{stroke:#ECECFF;fill:#ECECFF;}#mermaid-svg .arrow{stroke-width:8;stroke-linecap:round;fill:none;}#mermaid-svg .gitTitleText{text-anchor:middle;font-size:18px;fill:#333;}#mermaid-svg :root{--mermaid-font-family:"trebuchet ms",verdana,arial,sans-serif;}</style><g/><g class="commit-bullets"/><g class="commit-labels"/><g><line x1="0" y1="0" x2="550" y2="0" class="branch branch0"/><rect class="branchLabelBkg label0" rx="4" ry="4" x="-69" y="-1.5" width="53" height="23" transform="translate(-19, -9.5)"/><g class="branchLabel"><g class="label branch-label0" transform="translate(-79, -10.5)"><text><tspan xml:space="preserve" dy="1em" x="0" class="row">main</tspan></text></g></g><line x1="0" y1="90" x2="550" y2="90" class="branch branch1"/><rect class="branchLabelBkg label1" rx="4" ry="4" x="-90.5078125" y="-1.5" width="74.5078125" height="23" transform="translate(-19, 80.5)"/><g class="branchLabel"><g class="label branch-label1" transform="translate(-100.5078125, 79.5)"><text><tspan xml:space="preserve" dy="1em" x="0" class="row">develop</tspan></text></g></g><line x1="0" y1="180" x2="550" y2="180" class="branch branch2"/><rect class="branchLabelBkg label2" rx="4" ry="4" x="-95.46875" y="-1.5" width="79.46875" height="23" transform="translate(-19, 170.5)"/><g class="branchLabel"><g class="label branch-label2" transform="translate(-105.46875, 169.5)"><text><tspan xml:space="preserve" dy="1em" x="0" class="row">feature1</tspan></text></g></g><line x1="0" y1="270" x2="550" y2="270" class="branch branch3"/><rect class="branchLabelBkg label3" rx="4" ry="4" x="-95.46875" y="-1.5" width="79.46875" height="23" transform="translate(-19, 260.5)"/><g class="branchLabel"><g class="label branch-label3" transform="translate(-105.46875, 259.5)"><text><tspan xml:space="preserve" dy="1em" x="0" class="row">feature2</tspan></text></g></g><line x1="0" y1="360" x2="550" y2="360" class="branch branch4"/><rect class="branchLabelBkg label4" rx="4" ry="4" x="-86.2734375" y="-1.5" width="70.2734375" height="23" transform="translate(-19, 350.5)"/><g class="branchLabel"><g class="label branch-label4" transform="translate(-96.2734375, 349.5)"><text><tspan xml:space="preserve" dy="1em" x="0" class="row">release</tspan></text></g></g></g><g class="commit-arrows"><path d="M 10 0 L 10 70 A 20 20, 0, 0, 0, 30 90 L 60 90" class="arrow arrow1"/><path d="M 60 90 L 60 160 A 20 20, 0, 0, 0, 80 180 L 110 180" class="arrow arrow2"/><path d="M 60 90 L 60 250 A 20 20, 0, 0, 0, 80 270 L 160 270" class="arrow arrow3"/><path d="M 60 90 L 60 90  60 90 L 210 90" class="arrow arrow1"/><path d="M 110 180 L 190 180 A 20 20, 0, 0, 0, 210 160 L 210 90" class="arrow arrow2"/><path d="M 160 270 L 160 270  160 270 L 260 270" class="arrow arrow3"/><path d="M 210 90 L 210 90  210 90 L 310 90" class="arrow arrow1"/><path d="M 260 270 L 290 270 A 20 20, 0, 0, 0, 310 250 L 310 90" class="arrow arrow3"/><path d="M 310 90 L 310 90  310 90 L 360 90" class="arrow arrow1"/><path d="M 360 90 L 360 340 A 20 20, 0, 0, 0, 380 360 L 410 360" class="arrow arrow4"/><path d="M 410 360 L 410 360  410 360 L 460 360" class="arrow arrow4"/><path d="M 10 0 L 10 0  10 0 L 510 0" class="arrow arrow0"/><path d="M 460 360 L 490 360 A 20 20, 0, 0, 0, 510 340 L 510 0" class="arrow arrow4"/></g><g class="commit-bullets"><circle cx="10" cy="0" r="10" class="commit 0-5255e39 commit0"/><circle cx="60" cy="90" r="10" class="commit   commit1"/><circle cx="110" cy="180" r="10" class="commit 2-0995eae commit2"/><circle cx="160" cy="270" r="10" class="commit 3-50df75c commit3"/><circle cx="210" cy="90" r="9" class="commit 4-d823ed1 commit1"/><circle cx="210" cy="90" r="6" class="commit commit-merge 4-d823ed1 commit1"/><circle cx="260" cy="270" r="10" class="commit 5-c56892c commit3"/><circle cx="310" cy="90" r="9" class="commit 6-348057d commit1"/><circle cx="310" cy="90" r="6" class="commit commit-merge 6-348057d commit1"/><circle cx="360" cy="90" r="10" class="commit Congelamento commit1"/><circle cx="410" cy="360" r="10" class="commit Melhorias commit4"/><circle cx="460" cy="360" r="10" class="commit Correções commit4"/><circle cx="510" cy="0" r="9" class="commit 10-076e513 commit0"/><circle cx="510" cy="0" r="6" class="commit commit-merge 10-076e513 commit0"/></g><g class="commit-labels"><polygon class="tag-label-bkg" points="           -11.53125,-17.2           -11.53125,-21.2           -3.53125,-26.7           23.53125,-26.7           23.53125,-11.7           -3.53125,-11.7"/><circle cx="-7.53125" cy="-19.2" r="1.5" class="tag-hole"/><text y="-16" class="tag-label" x="0.46875">v1.0</text><g transform="translate(-35.8753125, 31.9884375) rotate(-45, 350, 90)"><rect class="commit-label-bkg" x="325.6640625" y="103.5" width="68.671875" height="15"/><text x="327.6640625" y="115" class="commit-label">Congelamento</text></g><g transform="translate(-27.402500000000003, 24.4075) rotate(-45, 400, 360)"><rect class="commit-label-bkg" x="386.8125" y="373.5" width="46.375" height="15"/><text x="388.8125" y="385" class="commit-label">Melhorias</text></g><g transform="translate(-28.174375, 25.098125000000003) rotate(-45, 450, 360)"><rect class="commit-label-bkg" x="435.796875" y="373.5" width="48.40625" height="15"/><text x="437.796875" y="385" class="commit-label">Correções</text></g><polygon class="tag-label-bkg" points="           488.46875,-17.2           488.46875,-21.2           496.46875,-26.7           523.53125,-26.7           523.53125,-11.7           496.46875,-11.7"/><circle cx="492.46875" cy="-19.2" r="1.5" class="tag-hole"/><text y="-16" class="tag-label" x="500.46875">v1.1</text></g><style>@import url("https://cdnjs.cloudflare.com/ajax/libs/font-awesome/6.4.0/css/all.min.css");</style></svg>
