<svg id="mermaid-svg" width="480.46875" xmlns="http://www.w3.org/2000/svg" height="279.3768615722656" viewBox="-122.46875 -34.70000076293945 480.46875 279.3768615722656" role="graphics-document document" aria-roledescription="gitGraph" xmlns:xlink="http://www.w3.org/1999/xlink"><style>#mermaid-svg{font-family:"trebuchet ms",verdana,arial,sans-serif;font-size:16px;fill:#333;}#mermaid-svg .error-icon{fill:#552222;}#mermaid-svg .error-text{fill:#552222;stroke:#552222;}#mermaid-svg .edge-thickness-normal{stroke-width:2px;}#mermaid-svg .edge-thickness-thick{stroke-width:3.5px;}#mermaid-svg .edge-pattern-solid{stroke-dasharray:0;}#mermaid-svg .edge-pattern-dashed{stroke-dasharray:3;}#mermaid-svg .edge-pattern-dotted{stroke-dasharray:2;}#mermaid-svg .marker{fill:#333333;stroke:#333333;}#mermaid-svg .marker.cross{stroke:#333333;}#mermaid-svg svg{font-family:"trebuchet ms",verdana,arial,sans-serif;font-size:16px;}#mermaid-svg .commit-id,#mermaid-svg .commit-msg,#mermaid-svg .branch-label{fill:lightgrey;color:lightgrey;font-family:'trebuchet ms',verdana,arial,sans-serif;font-family:var(--mermaid-font-family);}#mermaid-svg .branch-label0{fill:#ffffff;}#mermaid-svg .commit0{stroke:hsl(240, 100%, 46.2745098039%);fill:hsl(240, 100%, 46.2745098039%);}#mermaid-svg .commit-highlight0{stroke:hsl(60, 100%, 3.7254901961%);fill:hsl(60, 100%, 3.7254901961%);}#mermaid-svg .label0{fill:hsl(240, 100%, 46.2745098039%);}#mermaid-svg .arrow0{stroke:hsl(240, 100%, 46.2745098039%);}#mermaid-svg .branch-label1{fill:black;}#mermaid-svg .commit1{stroke:hsl(60, 100%, 43.5294117647%);fill:hsl(60, 100%, 43.5294117647%);}#mermaid-svg .commit-highlight1{stroke:rgb(0, 0, 160.5);fill:rgb(0, 0, 160.5);}#mermaid-svg .label1{fill:hsl(60, 100%, 43.5294117647%);}#mermaid-svg .arrow1{stroke:hsl(60, 100%, 43.5294117647%);}#mermaid-svg .branch-label2{fill:black;}#mermaid-svg .commit2{stroke:hsl(80, 100%, 46.2745098039%);fill:hsl(80, 100%, 46.2745098039%);}#mermaid-svg .commit-highlight2{stroke:rgb(48.8333333334, 0, 146.5000000001);fill:rgb(48.8333333334, 0, 146.5000000001);}#mermaid-svg .label2{fill:hsl(80, 100%, 46.2745098039%);}#mermaid-svg .arrow2{stroke:hsl(80, 100%, 46.2745098039%);}#mermaid-svg .branch-label3{fill:#ffffff;}#mermaid-svg .commit3{stroke:hsl(210, 100%, 46.2745098039%);fill:hsl(210, 100%, 46.2745098039%);}#mermaid-svg .commit-highlight3{stroke:rgb(146.5000000001, 73.2500000001, 0);fill:rgb(146.5000000001, 73.2500000001, 0);}#mermaid-svg .label3{fill:hsl(210, 100%, 46.2745098039%);}#mermaid-svg .arrow3{stroke:hsl(210, 100%, 46.2745098039%);}#mermaid-svg .branch-label4{fill:black;}#mermaid-svg .commit4{stroke:hsl(180, 100%, 46.2745098039%);fill:hsl(180, 100%, 46.2745098039%);}#mermaid-svg .commit-highlight4{stroke:rgb(146.5000000001, 0, 0);fill:rgb(146.5000000001, 0, 0);}#mermaid-svg .label4{fill:hsl(180, 100%, 46.2745098039%);}#mermaid-svg .arrow4{stroke:hsl(180, 100%, 46.2745098039%);}#mermaid-svg .branch-label5{fill:black;}#mermaid-svg .commit5{stroke:hsl(150, 100%, 46.2745098039%);fill:hsl(150, 100%, 46.2745098039%);}#mermaid-svg .commit-highlight5{stroke:rgb(146.5000000001, 0, 73.2500000001);fill:rgb(146.5000000001, 0, 73.2500000001);}#mermaid-svg .label5{fill:hsl(150, 100%, 46.2745098039%);}#mermaid-svg .arrow5{stroke:hsl(150, 100%, 46.2745098039%);}#mermaid-svg .branch-label6{fill:black;}#mermaid-svg .commit6{stroke:hsl(300, 100%, 46.2745098039%);fill:hsl(300, 100%, 46.2745098039%);}#mermaid-svg .commit-highlight6{stroke:rgb(0, 146.5000000001, 0);fill:rgb(0, 146.5000000001, 0);}#mermaid-svg .label6{fill:hsl(300, 100%, 46.2745098039%);}#mermaid-svg .arrow6{stroke:hsl(300, 100%, 46.2745098039%);}#mermaid-svg .branch-label7{fill:black;}#mermaid-svg .commit7{stroke:hsl(0, 100%, 46.2745098039%);fill:hsl(0, 100%, 46.2745098039%);}#mermaid-svg .commit-highlight7{stroke:rgb(0, 146.5000000001, 146.5000000001);fill:rgb(0, 146.5000000001, 146.5000000001);}#mermaid-svg .label7{fill:hsl(0, 100%, 46.2745098039%);}#mermaid-svg .arrow7{stroke:hsl(0, 100%, 46.2745098039%);}#mermaid-svg .branch{stroke-width:1;stroke:#333333;stroke-dasharray:2;}#mermaid-svg .commit-label{font-size:10px;fill:#000021;}#mermaid-svg .commit-label-bkg{font-size:10px;fill:#ffffde;opacity:0.5;}#mermaid-svg .tag-label{font-size:10px;fill:#131300;}#mermaid-svg .tag-label-bkg{fill:#ECECFF;stroke:hsl(240, 60%, 86.2745098039%);}#mermaid-svg .tag-hole{fill:#333;}#mermaid-svg .commit-merge{stroke:#ECECFF;fill:#ECECFF;}#mermaid-svg .commit-reverse{stroke:#ECECFF;fill:#ECECFF;stroke-width:3;}#mermaid-svg .commit-highlight-inner{stroke:#ECECFF;fill:#ECECFF;}#mermaid-svg .arrow{stroke-width:8;stroke-linecap:round;fill:none;}#mermaid-svg .gitTitleText{text-anchor:middle;font-size:18px;fill:#333;}#mermaid-svg :root{--mermaid-font-family:"trebuchet ms",verdana,arial,sans-serif;}</style><g/><g class="commit-bullets"/><g class="commit-labels"/><g><line x1="0" y1="0" x2="350" y2="0" class="branch branch0"/><rect class="branchLabelBkg label0" rx="4" ry="4" x="-69" y="-1.5" width="53" height="23" transform="translate(-19, -9.5)"/><g class="branchLabel"><g class="label branch-label0" transform="translate(-79, -10.5)"><text><tspan xml:space="preserve" dy="1em" x="0" class="row">main</tspan></text></g></g><line x1="0" y1="90" x2="350" y2="90" class="branch branch1"/><rect class="branchLabelBkg label1" rx="4" ry="4" x="-95.46875" y="-1.5" width="79.46875" height="23" transform="translate(-19, 80.5)"/><g class="branchLabel"><g class="label branch-label1" transform="translate(-105.46875, 79.5)"><text><tspan xml:space="preserve" dy="1em" x="0" class="row">feature1</tspan></text></g></g><line x1="0" y1="180" x2="350" y2="180" class="branch branch2"/><rect class="branchLabelBkg label2" rx="4" ry="4" x="-95.46875" y="-1.5" width="79.46875" height="23" transform="translate(-19, 170.5)"/><g class="branchLabel"><g class="label branch-label2" transform="translate(-105.46875, 169.5)"><text><tspan xml:space="preserve" dy="1em" x="0" class="row">feature2</tspan></text></g></g></g><g class="commit-arrows"><path d="M 10 0 L 10 70 A 20 20, 0, 0, 0, 30 90 L 60 90" class="arrow arrow1"/><path d="M 60 90 L 60 90  60 90 L 110 90" class="arrow arrow1"/><path d="M 10 0 L 10 160 A 20 20, 0, 0, 0, 30 180 L 160 180" class="arrow arrow2"/><path d="M 10 0 L 10 0  10 0 L 210 0" class="arrow arrow0"/><path d="M 110 90 L 190 90 A 20 20, 0, 0, 0, 210 70 L 210 0" class="arrow arrow1"/><path d="M 160 180 L 160 180  160 180 L 260 180" class="arrow arrow2"/><path d="M 210 0 L 210 0  210 0 L 310 0" class="arrow arrow0"/><path d="M 260 180 L 290 180 A 20 20, 0, 0, 0, 310 160 L 310 0" class="arrow arrow2"/></g><g class="commit-bullets"><circle cx="10" cy="0" r="10" class="commit 0-7ff9c2c commit0"/><circle cx="60" cy="90" r="10" class="commit 1-70f6573 commit1"/><circle cx="110" cy="90" r="10" class="commit 2-7a590c6 commit1"/><circle cx="160" cy="180" r="10" class="commit 3-eeb13f5 commit2"/><rect x="200" y="-10" height="20" width="20" class="commit Pull Request 1 commit-highlight0 commit-highlight-outer"/><rect x="204" y="-6" height="12" width="12" class="commit Pull Request 1 commit0 commit-highlight-inner"/><circle cx="260" cy="180" r="10" class="commit 5-61a4a97 commit2"/><rect x="300" y="-10" height="20" width="20" class="commit Pull Request 2 commit-highlight0 commit-highlight-outer"/><rect x="304" y="-6" height="12" width="12" class="commit Pull Request 2 commit0 commit-highlight-inner"/></g><g class="commit-labels"><g transform="translate(-27.25703125, 24.27734375) rotate(-45, 0, 0)"><rect class="commit-label-bkg" x="-12.99609375" y="13.5" width="45.9921875" height="15"/><text x="-10.99609375" y="25" class="commit-label">0-7ff9c2c</text></g><polygon class="tag-label-bkg" points="           -11.53125,-17.2           -11.53125,-21.2           -3.53125,-26.7           23.53125,-26.7           23.53125,-11.7           -3.53125,-11.7"/><circle cx="-7.53125" cy="-19.2" r="1.5" class="tag-hole"/><text y="-16" class="tag-label" x="0.46875">v1.0</text><g transform="translate(-28.0496875, 24.986562499999998) rotate(-45, 50, 90)"><rect class="commit-label-bkg" x="35.9609375" y="103.5" width="48.078125" height="15"/><text x="37.9609375" y="115" class="commit-label">1-70f6573</text></g><g transform="translate(-28.530625, 25.416874999999997) rotate(-45, 100, 90)"><rect class="commit-label-bkg" x="85.328125" y="103.5" width="49.34375" height="15"/><text x="87.328125" y="115" class="commit-label">2-7a590c6</text></g><g transform="translate(-28.3346875, 25.2415625) rotate(-45, 150, 180)"><rect class="commit-label-bkg" x="135.5859375" y="193.5" width="48.828125" height="15"/><text x="137.5859375" y="205" class="commit-label">3-eeb13f5</text></g><g transform="translate(-35.465625, 31.621875000000003) rotate(-45, 200, 0)"><rect class="commit-label-bkg" x="176.203125" y="13.5" width="67.59375" height="15"/><text x="178.203125" y="25" class="commit-label">Pull Request 1</text></g><polygon class="tag-label-bkg" points="           188.46875,-17.2           188.46875,-21.2           196.46875,-26.7           223.53125,-26.7           223.53125,-11.7           196.46875,-11.7"/><circle cx="192.46875" cy="-19.2" r="1.5" class="tag-hole"/><text y="-16" class="tag-label" x="200.46875">v1.1</text><g transform="translate(-28.932148437499997, 25.776132812500002) rotate(-45, 250, 180)"><rect class="commit-label-bkg" x="234.7998046875" y="193.5" width="50.400390625" height="15"/><text x="236.7998046875" y="205" class="commit-label">5-61a4a97</text></g><g transform="translate(-35.465625, 31.621875000000003) rotate(-45, 300, 0)"><rect class="commit-label-bkg" x="276.203125" y="13.5" width="67.59375" height="15"/><text x="278.203125" y="25" class="commit-label">Pull Request 2</text></g><polygon class="tag-label-bkg" points="           288.46875,-17.2           288.46875,-21.2           296.46875,-26.7           323.53125,-26.7           323.53125,-11.7           296.46875,-11.7"/><circle cx="292.46875" cy="-19.2" r="1.5" class="tag-hole"/><text y="-16" class="tag-label" x="300.46875">v1.2</text></g><style>@import url("https://cdnjs.cloudflare.com/ajax/libs/font-awesome/6.4.0/css/all.min.css");</style></svg>