<svg id="mermaid-svg" width="796.53125" xmlns="http://www.w3.org/2000/svg" height="353.3774719238281" viewBox="-138.53125 -19 796.53125 353.3774719238281" role="graphics-document document" aria-roledescription="gitGraph" xmlns:xlink="http://www.w3.org/1999/xlink"><style>#mermaid-svg{font-family:"trebuchet ms",verdana,arial,sans-serif;font-size:16px;fill:#333;}#mermaid-svg .error-icon{fill:#552222;}#mermaid-svg .error-text{fill:#552222;stroke:#552222;}#mermaid-svg .edge-thickness-normal{stroke-width:2px;}#mermaid-svg .edge-thickness-thick{stroke-width:3.5px;}#mermaid-svg .edge-pattern-solid{stroke-dasharray:0;}#mermaid-svg .edge-pattern-dashed{stroke-dasharray:3;}#mermaid-svg .edge-pattern-dotted{stroke-dasharray:2;}#mermaid-svg .marker{fill:#333333;stroke:#333333;}#mermaid-svg .marker.cross{stroke:#333333;}#mermaid-svg svg{font-family:"trebuchet ms",verdana,arial,sans-serif;font-size:16px;}#mermaid-svg .commit-id,#mermaid-svg .commit-msg,#mermaid-svg .branch-label{fill:lightgrey;color:lightgrey;font-family:'trebuchet ms',verdana,arial,sans-serif;font-family:var(--mermaid-font-family);}#mermaid-svg .branch-label0{fill:#ffffff;}#mermaid-svg .commit0{stroke:hsl(240, 100%, 46.2745098039%);fill:hsl(240, 100%, 46.2745098039%);}#mermaid-svg .commit-highlight0{stroke:hsl(60, 100%, 3.7254901961%);fill:hsl(60, 100%, 3.7254901961%);}#mermaid-svg .label0{fill:hsl(240, 100%, 46.2745098039%);}#mermaid-svg .arrow0{stroke:hsl(240, 100%, 46.2745098039%);}#mermaid-svg .branch-label1{fill:black;}#mermaid-svg .commit1{stroke:hsl(60, 100%, 43.5294117647%);fill:hsl(60, 100%, 43.5294117647%);}#mermaid-svg .commit-highlight1{stroke:rgb(0, 0, 160.5);fill:rgb(0, 0, 160.5);}#mermaid-svg .label1{fill:hsl(60, 100%, 43.5294117647%);}#mermaid-svg .arrow1{stroke:hsl(60, 100%, 43.5294117647%);}#mermaid-svg .branch-label2{fill:black;}#mermaid-svg .commit2{stroke:hsl(80, 100%, 46.2745098039%);fill:hsl(80, 100%, 46.2745098039%);}#mermaid-svg .commit-highlight2{stroke:rgb(48.8333333334, 0, 146.5000000001);fill:rgb(48.8333333334, 0, 146.5000000001);}#mermaid-svg .label2{fill:hsl(80, 100%, 46.2745098039%);}#mermaid-svg .arrow2{stroke:hsl(80, 100%, 46.2745098039%);}#mermaid-svg .branch-label3{fill:#ffffff;}#mermaid-svg .commit3{stroke:hsl(210, 100%, 46.2745098039%);fill:hsl(210, 100%, 46.2745098039%);}#mermaid-svg .commit-highlight3{stroke:rgb(146.5000000001, 73.2500000001, 0);fill:rgb(146.5000000001, 73.2500000001, 0);}#mermaid-svg .label3{fill:hsl(210, 100%, 46.2745098039%);}#mermaid-svg .arrow3{stroke:hsl(210, 100%, 46.2745098039%);}#mermaid-svg .branch-label4{fill:black;}#mermaid-svg .commit4{stroke:hsl(180, 100%, 46.2745098039%);fill:hsl(180, 100%, 46.2745098039%);}#mermaid-svg .commit-highlight4{stroke:rgb(146.5000000001, 0, 0);fill:rgb(146.5000000001, 0, 0);}#mermaid-svg .label4{fill:hsl(180, 100%, 46.2745098039%);}#mermaid-svg .arrow4{stroke:hsl(180, 100%, 46.2745098039%);}#mermaid-svg .branch-label5{fill:black;}#mermaid-svg .commit5{stroke:hsl(150, 100%, 46.2745098039%);fill:hsl(150, 100%, 46.2745098039%);}#mermaid-svg .commit-highlight5{stroke:rgb(146.5000000001, 0, 73.2500000001);fill:rgb(146.5000000001, 0, 73.2500000001);}#mermaid-svg .label5{fill:hsl(150, 100%, 46.2745098039%);}#mermaid-svg .arrow5{stroke:hsl(150, 100%, 46.2745098039%);}#mermaid-svg .branch-label6{fill:black;}#mermaid-svg .commit6{stroke:hsl(300, 100%, 46.2745098039%);fill:hsl(300, 100%, 46.2745098039%);}#mermaid-svg .commit-highlight6{stroke:rgb(0, 146.5000000001, 0);fill:rgb(0, 146.5000000001, 0);}#mermaid-svg .label6{fill:hsl(300, 100%, 46.2745098039%);}#mermaid-svg .arrow6{stroke:hsl(300, 100%, 46.2745098039%);}#mermaid-svg .branch-label7{fill:black;}#mermaid-svg .commit7{stroke:hsl(0, 100%, 46.2745098039%);fill:hsl(0, 100%, 46.2745098039%);}#mermaid-svg .commit-highlight7{stroke:rgb(0, 146.5000000001, 146.5000000001);fill:rgb(0, 146.5000000001, 146.5000000001);}#mermaid-svg .label7{fill:hsl(0, 100%, 46.2745098039%);}#mermaid-svg .arrow7{stroke:hsl(0, 100%, 46.2745098039%);}#mermaid-svg .branch{stroke-width:1;stroke:#333333;stroke-dasharray:2;}#mermaid-svg .commit-label{font-size:10px;fill:#000021;}#mermaid-svg .commit-label-bkg{font-size:10px;fill:#ffffde;opacity:0.5;}#mermaid-svg .tag-label{font-size:10px;fill:#131300;}#mermaid-svg .tag-label-bkg{fill:#ECECFF;stroke:hsl(240, 60%, 86.2745098039%);}#mermaid-svg .tag-hole{fill:#333;}#mermaid-svg .commit-merge{stroke:#ECECFF;fill:#ECECFF;}#mermaid-svg .commit-reverse{stroke:#ECECFF;fill:#ECECFF;stroke-width:3;}#mermaid-svg .commit-highlight-inner{stroke:#ECECFF;fill:#ECECFF;}#mermaid-svg .arrow{stroke-width:8;stroke-linecap:round;fill:none;}#mermaid-svg .gitTitleText{text-anchor:middle;font-size:18px;fill:#333;}#mermaid-svg :root{--mermaid-font-family:"trebuchet ms",verdana,arial,sans-serif;}</style><g/><g class="commit-bullets"/><g class="commit-labels"/><g><line x1="0" y1="0" x2="650" y2="0" class="branch branch0"/><rect class="branchLabelBkg label0" rx="4" ry="4" x="-69" y="-1.5" width="53" height="23" transform="translate(-19, -9.5)"/><g class="branchLabel"><g class="label branch-label0" transform="translate(-79, -10.5)"><text><tspan xml:space="preserve" dy="1em" x="0" class="row">main</tspan></text></g></g><line x1="0" y1="90" x2="650" y2="90" class="branch branch1"/><rect class="branchLabelBkg label1" rx="4" ry="4" x="-95.46875" y="-1.5" width="79.46875" height="23" transform="translate(-19, 80.5)"/><g class="branchLabel"><g class="label branch-label1" transform="translate(-105.46875, 79.5)"><text><tspan xml:space="preserve" dy="1em" x="0" class="row">feature1</tspan></text></g></g><line x1="0" y1="180" x2="650" y2="180" class="branch branch2"/><rect class="branchLabelBkg label2" rx="4" ry="4" x="-111.53125" y="-1.5" width="95.53125" height="23" transform="translate(-19, 170.5)"/><g class="branchLabel"><g class="label branch-label2" transform="translate(-121.53125, 169.5)"><text><tspan xml:space="preserve" dy="1em" x="0" class="row">production</tspan></text></g></g><line x1="0" y1="270" x2="650" y2="270" class="branch branch3"/><rect class="branchLabelBkg label3" rx="4" ry="4" x="-95.46875" y="-1.5" width="79.46875" height="23" transform="translate(-19, 260.5)"/><g class="branchLabel"><g class="label branch-label3" transform="translate(-105.46875, 259.5)"><text><tspan xml:space="preserve" dy="1em" x="0" class="row">feature2</tspan></text></g></g></g><g class="commit-arrows"><path d="M 10 0 L 10 70 A 20 20, 0, 0, 0, 30 90 L 60 90" class="arrow arrow1"/><path d="M 60 90 L 60 90  60 90 L 110 90" class="arrow arrow1"/><path d="M 10 0 L 10 0  10 0 L 160 0" class="arrow arrow0"/><path d="M 110 90 L 140 90 A 20 20, 0, 0, 0, 160 70 L 160 0" class="arrow arrow1"/><path d="M 160 0 L 160 0  160 0 L 210 0" class="arrow arrow0"/><path d="M 210 0 L 210 160 A 20 20, 0, 0, 0, 230 180 L 260 180" class="arrow arrow2"/><path d="M 210 0 L 210 0  210 0 L 310 0" class="arrow arrow0"/><path d="M 310 0 L 310 250 A 20 20, 0, 0, 0, 330 270 L 360 270" class="arrow arrow3"/><path d="M 360 270 L 360 270  360 270 L 410 270" class="arrow arrow3"/><path d="M 310 0 L 310 0  310 0 L 460 0" class="arrow arrow0"/><path d="M 410 270 L 440 270 A 20 20, 0, 0, 0, 460 250 L 460 0" class="arrow arrow3"/><path d="M 460 0 L 460 0  460 0 L 510 0" class="arrow arrow0"/><path d="M 260 180 L 260 180  260 180 L 560 180" class="arrow arrow2"/><path d="M 510 0 L 510 160 A 20 20, 0, 0, 0, 530 180 L 560 180" class="arrow arrow2"/><path d="M 560 180 L 560 180  560 180 L 610 180" class="arrow arrow2"/></g><g class="commit-bullets"><circle cx="10" cy="0" r="10" class="commit 0-0b9aef2 commit0"/><circle cx="60" cy="90" r="10" class="commit 1-66c749c commit1"/><circle cx="110" cy="90" r="10" class="commit 2-43fb820 commit1"/><circle cx="160" cy="0" r="9" class="commit 3-36b8d93 commit0"/><circle cx="160" cy="0" r="6" class="commit commit-merge 3-36b8d93 commit0"/><circle cx="210" cy="0" r="10" class="commit 4-c1835fd commit0"/><circle cx="260" cy="180" r="10" class="commit 5-a8e7531 commit2"/><circle cx="310" cy="0" r="10" class="commit 6-da96519 commit0"/><circle cx="360" cy="270" r="10" class="commit 7-f468264 commit3"/><circle cx="410" cy="270" r="10" class="commit 8-54d8a02 commit3"/><circle cx="460" cy="0" r="9" class="commit 9-b061ef8 commit0"/><circle cx="460" cy="0" r="6" class="commit commit-merge 9-b061ef8 commit0"/><circle cx="510" cy="0" r="10" class="commit 10-c80bc9c commit0"/><circle cx="560" cy="180" r="9" class="commit 11-f19a25d commit2"/><circle cx="560" cy="180" r="6" class="commit commit-merge 11-f19a25d commit2"/><circle cx="610" cy="180" r="10" class="commit 12-ca58bfe commit2"/></g><g class="commit-labels"><g transform="translate(-28.2575, 25.1725) rotate(-45, 0, 0)"><rect class="commit-label-bkg" x="-14.3125" y="13.5" width="48.625" height="15"/><text x="-12.3125" y="25" class="commit-label">0-0b9aef2</text></g><g transform="translate(-28.4333984375, 25.3298828125) rotate(-45, 50, 90)"><rect class="commit-label-bkg" x="35.4560546875" y="103.5" width="49.087890625" height="15"/><text x="37.4560546875" y="115" class="commit-label">1-66c749c</text></g><g transform="translate(-28.174375, 25.098125000000003) rotate(-45, 100, 90)"><rect class="commit-label-bkg" x="85.796875" y="103.5" width="48.40625" height="15"/><text x="87.796875" y="115" class="commit-label">2-43fb820</text></g><g transform="translate(-28.0675, 25.002499999999998) rotate(-45, 200, 0)"><rect class="commit-label-bkg" x="185.9375" y="13.5" width="48.125" height="15"/><text x="187.9375" y="25" class="commit-label">4-c1835fd</text></g><g transform="translate(-28.7265625, 25.5921875) rotate(-45, 250, 180)"><rect class="commit-label-bkg" x="235.0703125" y="193.5" width="49.859375" height="15"/><text x="237.0703125" y="205" class="commit-label">5-a8e7531</text></g><polygon class="tag-label-bkg" points="           238.46875,162.8           238.46875,158.8           246.46875,153.3           273.53125,153.3           273.53125,168.3           246.46875,168.3"/><circle cx="242.46875" cy="160.8" r="1.5" class="tag-hole"/><text y="164" class="tag-label" x="250.46875">v1.0</text><g transform="translate(-28.768125, 25.629375000000003) rotate(-45, 300, 0)"><rect class="commit-label-bkg" x="285.015625" y="13.5" width="49.96875" height="15"/><text x="287.015625" y="25" class="commit-label">6-da96519</text></g><g transform="translate(-28.33654296875, 25.243222656249998) rotate(-45, 350, 270)"><rect class="commit-label-bkg" x="335.58349609375" y="283.5" width="48.8330078125" height="15"/><text x="337.58349609375" y="295" class="commit-label">7-f468264</text></g><g transform="translate(-28.768125, 25.629375000000003) rotate(-45, 400, 270)"><rect class="commit-label-bkg" x="385.015625" y="283.5" width="49.96875" height="15"/><text x="387.015625" y="295" class="commit-label">8-54d8a02</text></g><g transform="translate(-30.43916015625, 27.12451171875) rotate(-45, 500, 0)"><rect class="commit-label-bkg" x="482.81689453125" y="13.5" width="54.3662109375" height="15"/><text x="484.81689453125" y="25" class="commit-label">10-c80bc9c</text></g><g transform="translate(-30.346015625, 27.041171875) rotate(-45, 600, 180)"><rect class="commit-label-bkg" x="582.939453125" y="193.5" width="54.12109375" height="15"/><text x="584.939453125" y="205" class="commit-label">12-ca58bfe</text></g><polygon class="tag-label-bkg" points="           588.46875,162.8           588.46875,158.8           596.46875,153.3           623.53125,153.3           623.53125,168.3           596.46875,168.3"/><circle cx="592.46875" cy="160.8" r="1.5" class="tag-hole"/><text y="164" class="tag-label" x="600.46875">v1.1</text></g><style>@import url("https://cdnjs.cloudflare.com/ajax/libs/font-awesome/6.4.0/css/all.min.css");</style></svg>